<?xml version="1.0" encoding="UTF-8" standalone="no"?>
<!DOCTYPE svg PUBLIC "-//W3C//DTD SVG 1.1//EN"
 "http://www.w3.org/Graphics/SVG/1.1/DTD/svg11.dtd">
<!-- Generated by graphviz version 13.0.1 (20250615.1724)
 -->
<!-- Title: ArchitectureComparison Pages: 1 -->
<svg width="4054pt" height="3448pt"
 viewBox="0.00 0.00 4054.00 3448.00" xmlns="http://www.w3.org/2000/svg" xmlns:xlink="http://www.w3.org/1999/xlink">
<g id="graph0" class="graph" transform="scale(4.16667 4.16667) rotate(0) translate(36 791.5)">
<title>ArchitectureComparison</title>
<polygon fill="white" stroke="none" points="-36,36 -36,-791.5 937,-791.5 937,36 -36,36"/>
<g id="clust1" class="cluster">
<title>cluster_baseline</title>
<path fill="#e8f4f8" stroke="#4e79a7" d="M20,-26.5C20,-26.5 164,-26.5 164,-26.5 170,-26.5 176,-32.5 176,-38.5 176,-38.5 176,-735.5 176,-735.5 176,-741.5 170,-747.5 164,-747.5 164,-747.5 20,-747.5 20,-747.5 14,-747.5 8,-741.5 8,-735.5 8,-735.5 8,-38.5 8,-38.5 8,-32.5 14,-26.5 20,-26.5"/>
<text xml:space="preserve" text-anchor="start" x="16" y="-731.2" font-family="Times New Roman,serif" font-weight="bold" font-size="14.00">Baseline SegFormer</text>
<text xml:space="preserve" text-anchor="start" x="34" y="-721" font-family="Times New Roman,serif" font-size="10.00">Single Global Head</text>
</g>
<g id="clust2" class="cluster">
<title>cluster_focused</title>
<path fill="#fef5e7" stroke="#f28e2b" d="M198,-12.5C198,-12.5 517,-12.5 517,-12.5 523,-12.5 529,-18.5 529,-24.5 529,-24.5 529,-735.5 529,-735.5 529,-741.5 523,-747.5 517,-747.5 517,-747.5 198,-747.5 198,-747.5 192,-747.5 186,-741.5 186,-735.5 186,-735.5 186,-24.5 186,-24.5 186,-18.5 192,-12.5 198,-12.5"/>
<text xml:space="preserve" text-anchor="start" x="213.88" y="-731.2" font-family="Times New Roman,serif" font-weight="bold" font-size="14.00">MTL Focused</text>
<text xml:space="preserve" text-anchor="start" x="194" y="-721" font-family="Times New Roman,serif" font-size="10.00">2 Primary + 5 Auxiliary Tasks</text>
</g>
<g id="clust3" class="cluster">
<title>cluster_holistic</title>
<path fill="#fef5f5" stroke="#e15759" d="M552,-8C552,-8 881,-8 881,-8 887,-8 893,-14 893,-20 893,-20 893,-735.5 893,-735.5 893,-741.5 887,-747.5 881,-747.5 881,-747.5 552,-747.5 552,-747.5 546,-747.5 540,-741.5 540,-735.5 540,-735.5 540,-20 540,-20 540,-14 546,-8 552,-8"/>
<text xml:space="preserve" text-anchor="start" x="586.25" y="-731.2" font-family="Times New Roman,serif" font-weight="bold" font-size="14.00">MTL Holistic</text>
<text xml:space="preserve" text-anchor="start" x="548" y="-721" font-family="Times New Roman,serif" font-size="10.00">7 Primary Tasks (Full Cross&#45;Attention)</text>
</g>
<!-- b_input -->
<g id="node1" class="node">
<title>b_input</title>
<path fill="#d4e6f1" stroke="#2874a6" stroke-width="2" d="M116.88,-699.5C116.88,-699.5 67.12,-699.5 67.12,-699.5 61.12,-699.5 55.12,-693.5 55.12,-687.5 55.12,-687.5 55.12,-675.5 55.12,-675.5 55.12,-669.5 61.12,-663.5 67.12,-663.5 67.12,-663.5 116.88,-663.5 116.88,-663.5 122.88,-663.5 128.88,-669.5 128.88,-675.5 128.88,-675.5 128.88,-687.5 128.88,-687.5 128.88,-693.5 122.88,-699.5 116.88,-699.5"/>
<text xml:space="preserve" text-anchor="middle" x="92" y="-684.55" font-family="Arial" font-size="11.00">Input Image</text>
<text xml:space="preserve" text-anchor="middle" x="92" y="-671.05" font-family="Arial" font-size="11.00">(B, 3, H, W)</text>
</g>
<!-- b_encoder -->
<g id="node2" class="node">
<title>b_encoder</title>
<path fill="#aed6f1" stroke="#1f618d" stroke-width="2" d="M145.75,-605.5C145.75,-605.5 38.25,-605.5 38.25,-605.5 32.25,-605.5 26.25,-599.5 26.25,-593.5 26.25,-593.5 26.25,-581.5 26.25,-581.5 26.25,-575.5 32.25,-569.5 38.25,-569.5 38.25,-569.5 145.75,-569.5 145.75,-569.5 151.75,-569.5 157.75,-575.5 157.75,-581.5 157.75,-581.5 157.75,-593.5 157.75,-593.5 157.75,-599.5 151.75,-605.5 145.75,-605.5"/>
<text xml:space="preserve" text-anchor="middle" x="92" y="-590.55" font-family="Arial" font-size="11.00">SegFormer&#45;B2 Encoder</text>
<text xml:space="preserve" text-anchor="middle" x="92" y="-577.05" font-family="Arial" font-size="11.00">(Mix Transformer)</text>
</g>
<!-- b_input&#45;&gt;b_encoder -->
<g id="edge1" class="edge">
<title>b_input&#45;&gt;b_encoder</title>
<path fill="none" stroke="black" d="M92,-662.93C92,-662.93 92,-617.87 92,-617.87"/>
<polygon fill="black" stroke="black" points="95.5,-617.87 92,-607.87 88.5,-617.87 95.5,-617.87"/>
</g>
<!-- b_features -->
<g id="node3" class="node">
<title>b_features</title>
<path fill="none" stroke="#5499c7" stroke-dasharray="5,2" d="M145,-511.5C145,-511.5 39,-511.5 39,-511.5 33,-511.5 27,-505.5 27,-499.5 27,-499.5 27,-487.5 27,-487.5 27,-481.5 33,-475.5 39,-475.5 39,-475.5 145,-475.5 145,-475.5 151,-475.5 157,-481.5 157,-487.5 157,-487.5 157,-499.5 157,-499.5 157,-505.5 151,-511.5 145,-511.5"/>
<text xml:space="preserve" text-anchor="middle" x="92" y="-496.55" font-family="Arial" font-size="11.00">Multi&#45;scale Features</text>
<text xml:space="preserve" text-anchor="middle" x="92" y="-483.05" font-family="Arial" font-size="11.00">[F₁, F₂, F₃, F₄]</text>
</g>
<!-- b_encoder&#45;&gt;b_features -->
<g id="edge2" class="edge">
<title>b_encoder&#45;&gt;b_features</title>
<path fill="none" stroke="black" d="M92,-568.93C92,-568.93 92,-523.23 92,-523.23"/>
<polygon fill="black" stroke="black" points="95.5,-523.23 92,-513.23 88.5,-523.23 95.5,-523.23"/>
</g>
<!-- b_decoder -->
<g id="node4" class="node">
<title>b_decoder</title>
<path fill="#85c1e9" stroke="#1f618d" stroke-width="2" d="M148.38,-417.5C148.38,-417.5 35.62,-417.5 35.62,-417.5 29.62,-417.5 23.62,-411.5 23.62,-405.5 23.62,-405.5 23.62,-367.5 23.62,-367.5 23.62,-361.5 29.62,-355.5 35.62,-355.5 35.62,-355.5 148.38,-355.5 148.38,-355.5 154.38,-355.5 160.38,-361.5 160.38,-367.5 160.38,-367.5 160.38,-405.5 160.38,-405.5 160.38,-411.5 154.38,-417.5 148.38,-417.5"/>
<text xml:space="preserve" text-anchor="middle" x="92" y="-403.05" font-family="Arial" font-size="11.00">Standard MLP Decoder</text>
<text xml:space="preserve" text-anchor="middle" x="92" y="-389.55" font-family="Arial" font-size="11.00">• Unify channels (C=256)</text>
<text xml:space="preserve" text-anchor="middle" x="92" y="-376.05" font-family="Arial" font-size="11.00">• Upsample &amp; concat</text>
<text xml:space="preserve" text-anchor="middle" x="92" y="-362.55" font-family="Arial" font-size="11.00">• Fuse features</text>
</g>
<!-- b_features&#45;&gt;b_decoder -->
<g id="edge3" class="edge">
<title>b_features&#45;&gt;b_decoder</title>
<path fill="none" stroke="black" d="M92,-475.35C92,-475.35 92,-429.7 92,-429.7"/>
<polygon fill="black" stroke="black" points="95.5,-429.7 92,-419.7 88.5,-429.7 95.5,-429.7"/>
</g>
<!-- b_head -->
<g id="node5" class="node">
<title>b_head</title>
<path fill="#5dade2" stroke="#154360" stroke-width="2" d="M143.12,-250.5C143.12,-250.5 40.88,-250.5 40.88,-250.5 34.88,-250.5 28.88,-244.5 28.88,-238.5 28.88,-238.5 28.88,-214 28.88,-214 28.88,-208 34.88,-202 40.88,-202 40.88,-202 143.12,-202 143.12,-202 149.12,-202 155.12,-208 155.12,-214 155.12,-214 155.12,-238.5 155.12,-238.5 155.12,-244.5 149.12,-250.5 143.12,-250.5"/>
<text xml:space="preserve" text-anchor="middle" x="92" y="-236.05" font-family="Arial" font-size="11.00">Single Prediction Head</text>
<text xml:space="preserve" text-anchor="middle" x="92" y="-222.55" font-family="Arial" font-size="11.00">(63 classes)</text>
<text xml:space="preserve" text-anchor="middle" x="92" y="-209.05" font-family="Arial" font-size="11.00">1×1 Conv</text>
</g>
<!-- b_decoder&#45;&gt;b_head -->
<g id="edge4" class="edge">
<title>b_decoder&#45;&gt;b_head</title>
<path fill="none" stroke="black" d="M92,-354.84C92,-354.84 92,-262.79 92,-262.79"/>
<polygon fill="black" stroke="black" points="95.5,-262.79 92,-252.79 88.5,-262.79 95.5,-262.79"/>
</g>
<!-- b_output -->
<g id="node6" class="node">
<title>b_output</title>
<path fill="#3498db" stroke="#154360" stroke-width="2" d="M119.88,-78.5C119.88,-78.5 64.12,-78.5 64.12,-78.5 58.12,-78.5 52.12,-72.5 52.12,-66.5 52.12,-66.5 52.12,-54.5 52.12,-54.5 52.12,-48.5 58.12,-42.5 64.12,-42.5 64.12,-42.5 119.88,-42.5 119.88,-42.5 125.88,-42.5 131.88,-48.5 131.88,-54.5 131.88,-54.5 131.88,-66.5 131.88,-66.5 131.88,-72.5 125.88,-78.5 119.88,-78.5"/>
<text xml:space="preserve" text-anchor="middle" x="92" y="-63.55" font-family="Arial" font-size="11.00">Output Logits</text>
<text xml:space="preserve" text-anchor="middle" x="92" y="-50.05" font-family="Arial" font-size="11.00">(B, 63, H, W)</text>
</g>
<!-- b_head&#45;&gt;b_output -->
<g id="edge5" class="edge">
<title>b_head&#45;&gt;b_output</title>
<path fill="none" stroke="black" d="M92,-201.08C92,-201.08 92,-90.72 92,-90.72"/>
<polygon fill="black" stroke="black" points="95.5,-90.72 92,-80.72 88.5,-90.72 95.5,-90.72"/>
</g>
<!-- f_input -->
<g id="node7" class="node">
<title>f_input</title>
<path fill="#fdebd0" stroke="#ca6f1e" stroke-width="2" d="M303.88,-699.5C303.88,-699.5 254.12,-699.5 254.12,-699.5 248.12,-699.5 242.12,-693.5 242.12,-687.5 242.12,-687.5 242.12,-675.5 242.12,-675.5 242.12,-669.5 248.12,-663.5 254.12,-663.5 254.12,-663.5 303.88,-663.5 303.88,-663.5 309.88,-663.5 315.88,-669.5 315.88,-675.5 315.88,-675.5 315.88,-687.5 315.88,-687.5 315.88,-693.5 309.88,-699.5 303.88,-699.5"/>
<text xml:space="preserve" text-anchor="middle" x="279" y="-684.55" font-family="Arial" font-size="11.00">Input Image</text>
<text xml:space="preserve" text-anchor="middle" x="279" y="-671.05" font-family="Arial" font-size="11.00">(B, 3, H, W)</text>
</g>
<!-- f_encoder -->
<g id="node8" class="node">
<title>f_encoder</title>
<path fill="#fad7a0" stroke="#af601a" stroke-width="2" d="M332.75,-605.5C332.75,-605.5 225.25,-605.5 225.25,-605.5 219.25,-605.5 213.25,-599.5 213.25,-593.5 213.25,-593.5 213.25,-581.5 213.25,-581.5 213.25,-575.5 219.25,-569.5 225.25,-569.5 225.25,-569.5 332.75,-569.5 332.75,-569.5 338.75,-569.5 344.75,-575.5 344.75,-581.5 344.75,-581.5 344.75,-593.5 344.75,-593.5 344.75,-599.5 338.75,-605.5 332.75,-605.5"/>
<text xml:space="preserve" text-anchor="middle" x="279" y="-590.55" font-family="Arial" font-size="11.00">SegFormer&#45;B2 Encoder</text>
<text xml:space="preserve" text-anchor="middle" x="279" y="-577.05" font-family="Arial" font-size="11.00">(Mix Transformer)</text>
</g>
<!-- f_input&#45;&gt;f_encoder -->
<g id="edge6" class="edge">
<title>f_input&#45;&gt;f_encoder</title>
<path fill="none" stroke="black" d="M279,-662.93C279,-662.93 279,-617.87 279,-617.87"/>
<polygon fill="black" stroke="black" points="282.5,-617.87 279,-607.87 275.5,-617.87 282.5,-617.87"/>
</g>
<!-- f_features -->
<g id="node9" class="node">
<title>f_features</title>
<path fill="none" stroke="#eb984e" stroke-dasharray="5,2" d="M332,-511.5C332,-511.5 226,-511.5 226,-511.5 220,-511.5 214,-505.5 214,-499.5 214,-499.5 214,-487.5 214,-487.5 214,-481.5 220,-475.5 226,-475.5 226,-475.5 332,-475.5 332,-475.5 338,-475.5 344,-481.5 344,-487.5 344,-487.5 344,-499.5 344,-499.5 344,-505.5 338,-511.5 332,-511.5"/>
<text xml:space="preserve" text-anchor="middle" x="279" y="-496.55" font-family="Arial" font-size="11.00">Multi&#45;scale Features</text>
<text xml:space="preserve" text-anchor="middle" x="279" y="-483.05" font-family="Arial" font-size="11.00">[F₁, F₂, F₃, F₄]</text>
</g>
<!-- f_encoder&#45;&gt;f_features -->
<g id="edge7" class="edge">
<title>f_encoder&#45;&gt;f_features</title>
<path fill="none" stroke="black" d="M279,-568.93C279,-568.93 279,-523.23 279,-523.23"/>
<polygon fill="black" stroke="black" points="282.5,-523.23 279,-513.23 275.5,-523.23 282.5,-523.23"/>
</g>
<!-- f_decoder -->
<g id="node10" class="node">
<title>f_decoder</title>
<path fill="#f8c471" stroke="#af601a" stroke-width="2" d="M342.12,-410.75C342.12,-410.75 215.88,-410.75 215.88,-410.75 209.88,-410.75 203.88,-404.75 203.88,-398.75 203.88,-398.75 203.88,-374.25 203.88,-374.25 203.88,-368.25 209.88,-362.25 215.88,-362.25 215.88,-362.25 342.12,-362.25 342.12,-362.25 348.12,-362.25 354.12,-368.25 354.12,-374.25 354.12,-374.25 354.12,-398.75 354.12,-398.75 354.12,-404.75 348.12,-410.75 342.12,-410.75"/>
<text xml:space="preserve" text-anchor="middle" x="279" y="-396.3" font-family="Arial" font-size="11.00">Hierarchical Decoder</text>
<text xml:space="preserve" text-anchor="middle" x="279" y="-382.8" font-family="Arial" font-size="11.00">• Unify channels (C=256)</text>
<text xml:space="preserve" text-anchor="middle" x="279" y="-369.3" font-family="Arial" font-size="11.00">• Task&#45;specific MLP streams</text>
</g>
<!-- f_features&#45;&gt;f_decoder -->
<g id="edge8" class="edge">
<title>f_features&#45;&gt;f_decoder</title>
<path fill="none" stroke="black" d="M279,-475.35C279,-475.35 279,-423.09 279,-423.09"/>
<polygon fill="black" stroke="black" points="282.5,-423.09 279,-413.09 275.5,-423.09 282.5,-423.09"/>
</g>
<!-- f_primary -->
<g id="node12" class="node">
<title>f_primary</title>
<path fill="#f39c12" stroke="#d68910" stroke-width="2" d="M317.75,-270.5C317.75,-270.5 228.25,-270.5 228.25,-270.5 222.25,-270.5 216.25,-264.5 216.25,-258.5 216.25,-258.5 216.25,-194 216.25,-194 216.25,-188 222.25,-182 228.25,-182 228.25,-182 317.75,-182 317.75,-182 323.75,-182 329.75,-188 329.75,-194 329.75,-194 329.75,-258.5 329.75,-258.5 329.75,-264.5 323.75,-270.5 317.75,-270.5"/>
<text xml:space="preserve" text-anchor="middle" x="273" y="-256.05" font-family="Arial" font-size="11.00">Primary Tasks (2)</text>
<text xml:space="preserve" text-anchor="middle" x="273" y="-242.55" font-family="Arial" font-size="11.00">• Genus (9 cls)</text>
<text xml:space="preserve" text-anchor="middle" x="273" y="-229.05" font-family="Arial" font-size="11.00">• Health (4 cls)</text>
<text xml:space="preserve" text-anchor="middle" x="273" y="-202.55" font-family="Arial" font-size="11.00">Full MLP + Attention</text>
<text xml:space="preserve" text-anchor="middle" x="273" y="-189.05" font-family="Arial" font-size="11.00">+ Gating</text>
</g>
<!-- f_decoder&#45;&gt;f_primary -->
<g id="edge9" class="edge">
<title>f_decoder&#45;&gt;f_primary</title>
<path fill="none" stroke="#af601a" d="M273,-361.46C273,-361.46 273,-282.94 273,-282.94"/>
<polygon fill="#af601a" stroke="#af601a" points="276.5,-282.94 273,-272.94 269.5,-282.94 276.5,-282.94"/>
<text xml:space="preserve" text-anchor="middle" x="256.88" y="-334.65" font-family="Arial" font-size="9.00">primary</text>
<text xml:space="preserve" text-anchor="middle" x="256.88" y="-324.15" font-family="Arial" font-size="9.00">streams</text>
</g>
<!-- f_aux -->
<g id="node13" class="node">
<title>f_aux</title>
<path fill="#f8c471" stroke="#af601a" stroke-width="2" d="M497.75,-284C497.75,-284 390.25,-284 390.25,-284 384.25,-284 378.25,-278 378.25,-272 378.25,-272 378.25,-180.5 378.25,-180.5 378.25,-174.5 384.25,-168.5 390.25,-168.5 390.25,-168.5 497.75,-168.5 497.75,-168.5 503.75,-168.5 509.75,-174.5 509.75,-180.5 509.75,-180.5 509.75,-272 509.75,-272 509.75,-278 503.75,-284 497.75,-284"/>
<text xml:space="preserve" text-anchor="middle" x="444" y="-269.55" font-family="Arial" font-size="11.00">Auxiliary Tasks (5)</text>
<text xml:space="preserve" text-anchor="middle" x="444" y="-256.05" font-family="Arial" font-size="11.00">• Fish (2 cls)</text>
<text xml:space="preserve" text-anchor="middle" x="444" y="-242.55" font-family="Arial" font-size="11.00">• Human Artifacts (4 cls)</text>
<text xml:space="preserve" text-anchor="middle" x="444" y="-229.05" font-family="Arial" font-size="11.00">• Substrate (6 cls)</text>
<text xml:space="preserve" text-anchor="middle" x="444" y="-215.55" font-family="Arial" font-size="11.00">• Background (3 cls)</text>
<text xml:space="preserve" text-anchor="middle" x="444" y="-202.05" font-family="Arial" font-size="11.00">• Biota (11 cls)</text>
<text xml:space="preserve" text-anchor="middle" x="444" y="-175.55" font-family="Arial" font-size="11.00">Lightweight 1×1 Conv</text>
</g>
<!-- f_decoder&#45;&gt;f_aux -->
<g id="edge10" class="edge">
<title>f_decoder&#45;&gt;f_aux</title>
<path fill="none" stroke="#af601a" d="M348.75,-361.38C348.75,-329.05 348.75,-277 348.75,-277 348.75,-277 365.81,-277 365.81,-277"/>
<polygon fill="#af601a" stroke="#af601a" points="365.81,-280.5 375.81,-277 365.81,-273.5 365.81,-280.5"/>
<text xml:space="preserve" text-anchor="middle" x="332.62" y="-323.11" font-family="Arial" font-size="9.00">aux</text>
<text xml:space="preserve" text-anchor="middle" x="332.62" y="-312.61" font-family="Arial" font-size="9.00">streams</text>
</g>
<!-- f_xchg -->
<g id="node11" class="node">
<title>f_xchg</title>
<path fill="#f5b7b1" stroke="#c0392b" stroke-width="2" d="M326,-92.5C326,-92.5 214,-92.5 214,-92.5 208,-92.5 202,-86.5 202,-80.5 202,-80.5 202,-40.5 202,-40.5 202,-34.5 208,-28.5 214,-28.5 214,-28.5 326,-28.5 326,-28.5 332,-28.5 338,-34.5 338,-40.5 338,-40.5 338,-80.5 338,-80.5 338,-86.5 332,-92.5 326,-92.5"/>
<text xml:space="preserve" text-anchor="start" x="222.75" y="-79.05" font-family="Arial" font-weight="bold" font-size="11.00">Feature Exchange</text>
<text xml:space="preserve" text-anchor="start" x="222" y="-69.95" font-family="Arial" font-size="9.00">Cross&#45;Attention Module</text>
<text xml:space="preserve" text-anchor="start" x="249" y="-60.95" font-family="Arial" font-size="9.00">(dim=128)</text>
<text xml:space="preserve" text-anchor="start" x="232.12" y="-51.95" font-family="Arial" font-size="9.00">• Q/K/V projections</text>
<text xml:space="preserve" text-anchor="start" x="210" y="-42.95" font-family="Arial" font-size="9.00">• Scaled dot&#45;product attention</text>
<text xml:space="preserve" text-anchor="start" x="230.25" y="-33.95" font-family="Arial" font-size="9.00">• Primary tasks only</text>
</g>
<!-- f_xchg&#45;&gt;f_primary -->
<g id="edge12" class="edge">
<title>f_xchg&#45;&gt;f_primary</title>
<path fill="none" stroke="#c0392b" stroke-width="2" stroke-dasharray="5,2" d="M254.08,-93.25C254.08,-93.25 254.08,-168 254.08,-168"/>
<polygon fill="#c0392b" stroke="#c0392b" stroke-width="2" points="250.58,-168 254.08,-178 257.58,-168 250.58,-168"/>
<text xml:space="preserve" text-anchor="middle" x="241.33" y="-132.57" font-family="Arial" font-size="9.00">enrich</text>
</g>
<!-- f_primary&#45;&gt;f_xchg -->
<g id="edge11" class="edge">
<title>f_primary&#45;&gt;f_xchg</title>
<path fill="none" stroke="#c0392b" d="M291.92,-181.4C291.92,-181.4 291.92,-104.81 291.92,-104.81"/>
<polygon fill="#c0392b" stroke="#c0392b" points="295.42,-104.81 291.92,-94.81 288.42,-104.81 295.42,-104.81"/>
<text xml:space="preserve" text-anchor="middle" x="279.17" y="-145.05" font-family="Arial" font-size="9.00">attend</text>
</g>
<!-- f_output -->
<g id="node14" class="node">
<title>f_output</title>
<path fill="#f39c12" stroke="#9c640c" stroke-width="2" d="M500.75,-78.5C500.75,-78.5 393.25,-78.5 393.25,-78.5 387.25,-78.5 381.25,-72.5 381.25,-66.5 381.25,-66.5 381.25,-54.5 381.25,-54.5 381.25,-48.5 387.25,-42.5 393.25,-42.5 393.25,-42.5 500.75,-42.5 500.75,-42.5 506.75,-42.5 512.75,-48.5 512.75,-54.5 512.75,-54.5 512.75,-66.5 512.75,-66.5 512.75,-72.5 506.75,-78.5 500.75,-78.5"/>
<text xml:space="preserve" text-anchor="middle" x="447" y="-63.55" font-family="Arial" font-size="11.00">Task&#45;Specific Outputs</text>
<text xml:space="preserve" text-anchor="middle" x="447" y="-50.05" font-family="Arial" font-size="11.00">Dict[task_name, Tensor]</text>
</g>
<!-- f_primary&#45;&gt;f_output -->
<g id="edge13" class="edge">
<title>f_primary&#45;&gt;f_output</title>
<path fill="none" stroke="black" d="M330.47,-226C338.11,-226 343.38,-226 343.38,-226 343.38,-226 343.38,-61 343.38,-61 343.38,-61 368.98,-61 368.98,-61"/>
<polygon fill="black" stroke="black" points="368.98,-64.5 378.98,-61 368.98,-57.5 368.98,-64.5"/>
</g>
<!-- f_aux&#45;&gt;f_output -->
<g id="edge14" class="edge">
<title>f_aux&#45;&gt;f_output</title>
<path fill="none" stroke="black" d="M445.5,-167.81C445.5,-167.81 445.5,-91 445.5,-91"/>
<polygon fill="black" stroke="black" points="449,-91 445.5,-81 442,-91 449,-91"/>
</g>
<!-- h_input -->
<g id="node15" class="node">
<title>h_input</title>
<path fill="#fadbd8" stroke="#a93226" stroke-width="2" d="M678.88,-699.5C678.88,-699.5 629.12,-699.5 629.12,-699.5 623.12,-699.5 617.12,-693.5 617.12,-687.5 617.12,-687.5 617.12,-675.5 617.12,-675.5 617.12,-669.5 623.12,-663.5 629.12,-663.5 629.12,-663.5 678.88,-663.5 678.88,-663.5 684.88,-663.5 690.88,-669.5 690.88,-675.5 690.88,-675.5 690.88,-687.5 690.88,-687.5 690.88,-693.5 684.88,-699.5 678.88,-699.5"/>
<text xml:space="preserve" text-anchor="middle" x="654" y="-684.55" font-family="Arial" font-size="11.00">Input Image</text>
<text xml:space="preserve" text-anchor="middle" x="654" y="-671.05" font-family="Arial" font-size="11.00">(B, 3, H, W)</text>
</g>
<!-- h_encoder -->
<g id="node16" class="node">
<title>h_encoder</title>
<path fill="#f5b7b1" stroke="#922b21" stroke-width="2" d="M707.75,-605.5C707.75,-605.5 600.25,-605.5 600.25,-605.5 594.25,-605.5 588.25,-599.5 588.25,-593.5 588.25,-593.5 588.25,-581.5 588.25,-581.5 588.25,-575.5 594.25,-569.5 600.25,-569.5 600.25,-569.5 707.75,-569.5 707.75,-569.5 713.75,-569.5 719.75,-575.5 719.75,-581.5 719.75,-581.5 719.75,-593.5 719.75,-593.5 719.75,-599.5 713.75,-605.5 707.75,-605.5"/>
<text xml:space="preserve" text-anchor="middle" x="654" y="-590.55" font-family="Arial" font-size="11.00">SegFormer&#45;B2 Encoder</text>
<text xml:space="preserve" text-anchor="middle" x="654" y="-577.05" font-family="Arial" font-size="11.00">(Mix Transformer)</text>
</g>
<!-- h_input&#45;&gt;h_encoder -->
<g id="edge15" class="edge">
<title>h_input&#45;&gt;h_encoder</title>
<path fill="none" stroke="black" d="M654,-662.93C654,-662.93 654,-617.87 654,-617.87"/>
<polygon fill="black" stroke="black" points="657.5,-617.87 654,-607.87 650.5,-617.87 657.5,-617.87"/>
</g>
<!-- h_features -->
<g id="node17" class="node">
<title>h_features</title>
<path fill="none" stroke="#ec7063" stroke-dasharray="5,2" d="M707,-511.5C707,-511.5 601,-511.5 601,-511.5 595,-511.5 589,-505.5 589,-499.5 589,-499.5 589,-487.5 589,-487.5 589,-481.5 595,-475.5 601,-475.5 601,-475.5 707,-475.5 707,-475.5 713,-475.5 719,-481.5 719,-487.5 719,-487.5 719,-499.5 719,-499.5 719,-505.5 713,-511.5 707,-511.5"/>
<text xml:space="preserve" text-anchor="middle" x="654" y="-496.55" font-family="Arial" font-size="11.00">Multi&#45;scale Features</text>
<text xml:space="preserve" text-anchor="middle" x="654" y="-483.05" font-family="Arial" font-size="11.00">[F₁, F₂, F₃, F₄]</text>
</g>
<!-- h_encoder&#45;&gt;h_features -->
<g id="edge16" class="edge">
<title>h_encoder&#45;&gt;h_features</title>
<path fill="none" stroke="black" d="M654,-568.93C654,-568.93 654,-523.23 654,-523.23"/>
<polygon fill="black" stroke="black" points="657.5,-523.23 654,-513.23 650.5,-523.23 657.5,-523.23"/>
</g>
<!-- h_decoder -->
<g id="node18" class="node">
<title>h_decoder</title>
<path fill="#ec7063" stroke="#922b21" stroke-width="2" d="M721.62,-410.75C721.62,-410.75 586.38,-410.75 586.38,-410.75 580.38,-410.75 574.38,-404.75 574.38,-398.75 574.38,-398.75 574.38,-374.25 574.38,-374.25 574.38,-368.25 580.38,-362.25 586.38,-362.25 586.38,-362.25 721.62,-362.25 721.62,-362.25 727.62,-362.25 733.62,-368.25 733.62,-374.25 733.62,-374.25 733.62,-398.75 733.62,-398.75 733.62,-404.75 727.62,-410.75 721.62,-410.75"/>
<text xml:space="preserve" text-anchor="middle" x="654" y="-396.3" font-family="Arial" font-size="11.00">Hierarchical Decoder</text>
<text xml:space="preserve" text-anchor="middle" x="654" y="-382.8" font-family="Arial" font-size="11.00">• Unify channels (C=256)</text>
<text xml:space="preserve" text-anchor="middle" x="654" y="-369.3" font-family="Arial" font-size="11.00">• 7 Task&#45;specific MLP streams</text>
</g>
<!-- h_features&#45;&gt;h_decoder -->
<g id="edge17" class="edge">
<title>h_features&#45;&gt;h_decoder</title>
<path fill="none" stroke="black" d="M654,-475.35C654,-475.35 654,-423.09 654,-423.09"/>
<polygon fill="black" stroke="black" points="657.5,-423.09 654,-413.09 650.5,-423.09 657.5,-423.09"/>
</g>
<!-- h_all_tasks -->
<g id="node20" class="node">
<title>h_all_tasks</title>
<path fill="#cb4335" stroke="#78281f" stroke-width="2" d="M739.62,-297.5C739.62,-297.5 568.38,-297.5 568.38,-297.5 562.38,-297.5 556.38,-291.5 556.38,-285.5 556.38,-285.5 556.38,-167 556.38,-167 556.38,-161 562.38,-155 568.38,-155 568.38,-155 739.62,-155 739.62,-155 745.62,-155 751.62,-161 751.62,-167 751.62,-167 751.62,-285.5 751.62,-285.5 751.62,-291.5 745.62,-297.5 739.62,-297.5"/>
<text xml:space="preserve" text-anchor="middle" x="654" y="-283.05" font-family="Arial" font-size="11.00" fill="white">All Primary Tasks (7)</text>
<text xml:space="preserve" text-anchor="middle" x="654" y="-269.55" font-family="Arial" font-size="11.00" fill="white">• Genus (18 cls)</text>
<text xml:space="preserve" text-anchor="middle" x="654" y="-256.05" font-family="Arial" font-size="11.00" fill="white">• Health (18 cls)</text>
<text xml:space="preserve" text-anchor="middle" x="654" y="-242.55" font-family="Arial" font-size="11.00" fill="white">• Fish (2 cls)</text>
<text xml:space="preserve" text-anchor="middle" x="654" y="-229.05" font-family="Arial" font-size="11.00" fill="white">• Human Artifacts (4 cls)</text>
<text xml:space="preserve" text-anchor="middle" x="654" y="-215.55" font-family="Arial" font-size="11.00" fill="white">• Substrate (6 cls)</text>
<text xml:space="preserve" text-anchor="middle" x="654" y="-202.05" font-family="Arial" font-size="11.00" fill="white">• Background (3 cls)</text>
<text xml:space="preserve" text-anchor="middle" x="654" y="-188.55" font-family="Arial" font-size="11.00" fill="white">• Biota (12 cls)</text>
<text xml:space="preserve" text-anchor="middle" x="654" y="-162.05" font-family="Arial" font-size="11.00" fill="white">All with Full MLP + Attention + Gating</text>
</g>
<!-- h_decoder&#45;&gt;h_all_tasks -->
<g id="edge18" class="edge">
<title>h_decoder&#45;&gt;h_all_tasks</title>
<path fill="none" stroke="black" d="M654,-361.46C654,-361.46 654,-309.69 654,-309.69"/>
<polygon fill="black" stroke="black" points="657.5,-309.69 654,-299.69 650.5,-309.69 657.5,-309.69"/>
</g>
<!-- h_xchg -->
<g id="node19" class="node">
<title>h_xchg</title>
<path fill="#f5b7b1" stroke="#7b241c" stroke-width="2" d="M689.88,-97C689.88,-97 568.12,-97 568.12,-97 562.12,-97 556.12,-91 556.12,-85 556.12,-85 556.12,-36 556.12,-36 556.12,-30 562.12,-24 568.12,-24 568.12,-24 689.88,-24 689.88,-24 695.88,-24 701.88,-30 701.88,-36 701.88,-36 701.88,-85 701.88,-85 701.88,-91 695.88,-97 689.88,-97"/>
<text xml:space="preserve" text-anchor="start" x="581.75" y="-83.55" font-family="Arial" font-weight="bold" font-size="11.00">Feature Exchange</text>
<text xml:space="preserve" text-anchor="start" x="588.88" y="-74.45" font-family="Arial" font-size="9.00">Full Cross&#45;Attention</text>
<text xml:space="preserve" text-anchor="start" x="608" y="-65.45" font-family="Arial" font-size="9.00">(dim=128)</text>
<text xml:space="preserve" text-anchor="start" x="564.12" y="-56.45" font-family="Arial" font-size="9.00">• All 7 tasks attend to each other</text>
<text xml:space="preserve" text-anchor="start" x="580.62" y="-47.45" font-family="Arial" font-size="9.00">• 7×6=42 attention pairs</text>
<text xml:space="preserve" text-anchor="start" x="573.88" y="-38.45" font-family="Arial" font-size="9.00">• Q/K/V projections per task</text>
<text xml:space="preserve" text-anchor="start" x="569" y="-29.45" font-family="Arial" font-size="9.00">• Scaled dot&#45;product attention</text>
</g>
<!-- h_xchg&#45;&gt;h_all_tasks -->
<g id="edge20" class="edge">
<title>h_xchg&#45;&gt;h_all_tasks</title>
<path fill="none" stroke="#7b241c" stroke-width="2" stroke-dasharray="5,2" d="M653.38,-97.7C653.38,-97.7 653.38,-141.17 653.38,-141.17"/>
<polygon fill="#7b241c" stroke="#7b241c" stroke-width="2" points="649.88,-141.17 653.38,-151.17 656.88,-141.17 649.88,-141.17"/>
<text xml:space="preserve" text-anchor="middle" x="630.5" y="-131.88" font-family="Arial" font-size="9.00">mutual</text>
<text xml:space="preserve" text-anchor="middle" x="630.5" y="-121.38" font-family="Arial" font-size="9.00">enrichment</text>
</g>
<!-- h_all_tasks&#45;&gt;h_xchg -->
<g id="edge19" class="edge">
<title>h_all_tasks&#45;&gt;h_xchg</title>
<path fill="none" stroke="#7b241c" d="M604.88,-154.03C604.88,-154.03 604.88,-109.4 604.88,-109.4"/>
<polygon fill="#7b241c" stroke="#7b241c" points="608.38,-109.4 604.88,-99.4 601.38,-109.4 608.38,-109.4"/>
<text xml:space="preserve" text-anchor="middle" x="588.38" y="-144.17" font-family="Arial" font-size="9.00">all tasks</text>
<text xml:space="preserve" text-anchor="middle" x="588.38" y="-133.67" font-family="Arial" font-size="9.00">attend</text>
</g>
<!-- h_output -->
<g id="node21" class="node">
<title>h_output</title>
<path fill="#a93226" stroke="#641e16" stroke-width="2" d="M864.75,-78.5C864.75,-78.5 757.25,-78.5 757.25,-78.5 751.25,-78.5 745.25,-72.5 745.25,-66.5 745.25,-66.5 745.25,-54.5 745.25,-54.5 745.25,-48.5 751.25,-42.5 757.25,-42.5 757.25,-42.5 864.75,-42.5 864.75,-42.5 870.75,-42.5 876.75,-48.5 876.75,-54.5 876.75,-54.5 876.75,-66.5 876.75,-66.5 876.75,-72.5 870.75,-78.5 864.75,-78.5"/>
<text xml:space="preserve" text-anchor="middle" x="811" y="-63.55" font-family="Arial" font-size="11.00" fill="white">Task&#45;Specific Outputs</text>
<text xml:space="preserve" text-anchor="middle" x="811" y="-50.05" font-family="Arial" font-size="11.00" fill="white">Dict[task_name, Tensor]</text>
</g>
<!-- h_all_tasks&#45;&gt;h_output -->
<g id="edge21" class="edge">
<title>h_all_tasks&#45;&gt;h_output</title>
<path fill="none" stroke="black" d="M723.56,-154.25C723.56,-109.72 723.56,-61 723.56,-61 723.56,-61 732.77,-61 732.77,-61"/>
<polygon fill="black" stroke="black" points="732.77,-64.5 742.77,-61 732.77,-57.5 732.77,-64.5"/>
</g>
</g>
</svg>
