<?xml version="1.0" encoding="UTF-8" standalone="no"?>
<!DOCTYPE svg PUBLIC "-//W3C//DTD SVG 1.1//EN"
 "http://www.w3.org/Graphics/SVG/1.1/DTD/svg11.dtd">
<!-- Generated by graphviz version 13.0.1 (20250615.1724)
 -->
<!-- Title: FeatureExchange Pages: 1 -->
<svg width="3283pt" height="3197pt"
 viewBox="0.00 0.00 3283.00 3197.00" xmlns="http://www.w3.org/2000/svg" xmlns:xlink="http://www.w3.org/1999/xlink">
<g id="graph0" class="graph" transform="scale(4.16667 4.16667) rotate(0) translate(36 731.25)">
<title>FeatureExchange</title>
<polygon fill="white" stroke="none" points="-36,36 -36,-731.25 752,-731.25 752,36 -36,36"/>
<text xml:space="preserve" text-anchor="start" x="247" y="-678.95" font-family="Times New Roman,serif" font-weight="bold" font-size="14.00">Feature Exchange via Cross&#45;Attention</text>
<text xml:space="preserve" text-anchor="start" x="298.38" y="-668.75" font-family="Times New Roman,serif" font-size="10.00">Mechanism for Primary Tasks</text>
<g id="clust1" class="cluster">
<title>cluster_inputs</title>
</g>
<g id="clust2" class="cluster">
<title>cluster_pooling_level</title>
</g>
<g id="clust3" class="cluster">
<title>cluster_qkv</title>
<path fill="white" stroke="#7f8c8d" stroke-dasharray="5,2" d="M20,-384C20,-384 696,-384 696,-384 702,-384 708,-390 708,-396 708,-396 708,-457.75 708,-457.75 708,-463.75 702,-469.75 696,-469.75 696,-469.75 20,-469.75 20,-469.75 14,-469.75 8,-463.75 8,-457.75 8,-457.75 8,-396 8,-396 8,-390 14,-384 20,-384"/>
<text xml:space="preserve" text-anchor="middle" x="358" y="-452.45" font-family="Times New Roman,serif" font-size="14.00">Q/K/V Projections (1×1 Conv)</text>
</g>
<g id="clust4" class="cluster">
<title>cluster_gating_projection</title>
</g>
<!-- f_genus -->
<g id="node1" class="node">
<title>f_genus</title>
<path fill="#aed6f1" stroke="#1f618d" stroke-width="2" d="M335.5,-615.25C335.5,-615.25 256.5,-615.25 256.5,-615.25 250.5,-615.25 244.5,-609.25 244.5,-603.25 244.5,-603.25 244.5,-591.25 244.5,-591.25 244.5,-585.25 250.5,-579.25 256.5,-579.25 256.5,-579.25 335.5,-579.25 335.5,-579.25 341.5,-579.25 347.5,-585.25 347.5,-591.25 347.5,-591.25 347.5,-603.25 347.5,-603.25 347.5,-609.25 341.5,-615.25 335.5,-615.25"/>
<text xml:space="preserve" text-anchor="middle" x="296" y="-599.75" font-family="Arial" font-size="10.00">Genus Features</text>
<text xml:space="preserve" text-anchor="middle" x="296" y="-587.75" font-family="Arial" font-size="10.00">F_genus (B,C,H,W)</text>
</g>
<!-- pass_l -->
<g id="node3" class="node">
<title>pass_l</title>
<ellipse fill="black" stroke="black" cx="259" cy="-505.25" rx="0.36" ry="0.36"/>
</g>
<!-- f_genus&#45;&gt;pass_l -->
<!-- pool -->
<g id="node4" class="node">
<title>pool</title>
<path fill="#d5dbdb" stroke="#34495e" d="M384.88,-523.25C384.88,-523.25 323.12,-523.25 323.12,-523.25 317.12,-523.25 311.12,-517.25 311.12,-511.25 311.12,-511.25 311.12,-499.25 311.12,-499.25 311.12,-493.25 317.12,-487.25 323.12,-487.25 323.12,-487.25 384.88,-487.25 384.88,-487.25 390.88,-487.25 396.88,-493.25 396.88,-499.25 396.88,-499.25 396.88,-511.25 396.88,-511.25 396.88,-517.25 390.88,-523.25 384.88,-523.25"/>
<text xml:space="preserve" text-anchor="middle" x="354" y="-507.75" font-family="Arial" font-size="10.00">Context Pooling</text>
<text xml:space="preserve" text-anchor="middle" x="354" y="-495.75" font-family="Arial" font-size="10.00">AvgPool 4×4</text>
</g>
<!-- f_genus&#45;&gt;pool -->
<g id="edge1" class="edge">
<title>f_genus&#45;&gt;pool</title>
<path fill="none" stroke="black" d="M329.31,-578.64C329.31,-578.64 329.31,-535.04 329.31,-535.04"/>
<polygon fill="black" stroke="black" points="332.81,-535.04 329.31,-525.04 325.81,-535.04 332.81,-535.04"/>
</g>
<!-- f_health -->
<g id="node2" class="node">
<title>f_health</title>
<path fill="#f5b7b1" stroke="#922b21" stroke-width="2" d="M474.5,-615.25C474.5,-615.25 395.5,-615.25 395.5,-615.25 389.5,-615.25 383.5,-609.25 383.5,-603.25 383.5,-603.25 383.5,-591.25 383.5,-591.25 383.5,-585.25 389.5,-579.25 395.5,-579.25 395.5,-579.25 474.5,-579.25 474.5,-579.25 480.5,-579.25 486.5,-585.25 486.5,-591.25 486.5,-591.25 486.5,-603.25 486.5,-603.25 486.5,-609.25 480.5,-615.25 474.5,-615.25"/>
<text xml:space="preserve" text-anchor="middle" x="435" y="-599.75" font-family="Arial" font-size="10.00">Health Features</text>
<text xml:space="preserve" text-anchor="middle" x="435" y="-587.75" font-family="Arial" font-size="10.00">F_health (B,C,H,W)</text>
</g>
<!-- f_health&#45;&gt;pool -->
<g id="edge2" class="edge">
<title>f_health&#45;&gt;pool</title>
<path fill="none" stroke="black" d="M390.19,-578.64C390.19,-578.64 390.19,-535.04 390.19,-535.04"/>
<polygon fill="black" stroke="black" points="393.69,-535.04 390.19,-525.04 386.69,-535.04 393.69,-535.04"/>
</g>
<!-- pass_r -->
<g id="node5" class="node">
<title>pass_r</title>
<ellipse fill="black" stroke="black" cx="441" cy="-505.25" rx="0.36" ry="0.36"/>
</g>
<!-- f_health&#45;&gt;pass_r -->
<!-- gate_g -->
<g id="node13" class="node">
<title>gate_g</title>
<polygon fill="#d7bde2" stroke="#6c3483" points="156,-236 88.25,-204 156,-172 223.75,-204 156,-236"/>
<text xml:space="preserve" text-anchor="middle" x="156" y="-206.5" font-family="Arial" font-size="10.00">Gating</text>
<text xml:space="preserve" text-anchor="middle" x="156" y="-194.5" font-family="Arial" font-size="10.00">σ(Conv1×1)</text>
</g>
<!-- pass_l&#45;&gt;gate_g -->
<g id="edge15" class="edge">
<title>pass_l&#45;&gt;gate_g</title>
<path fill="none" stroke="#6c3483" stroke-dasharray="5,2" d="M258.6,-505C250.33,-505 118,-505 118,-505 118,-505 118,-230.03 118,-230.03"/>
<polygon fill="#6c3483" stroke="#6c3483" points="121.5,-230.03 118,-220.03 114.5,-230.03 121.5,-230.03"/>
<text xml:space="preserve" text-anchor="middle" x="102.62" y="-439.76" font-family="Arial" font-size="9.00">original</text>
</g>
<!-- k_genus -->
<g id="node7" class="node">
<title>k_genus</title>
<ellipse fill="#85c1e9" stroke="black" cx="178" cy="-414.63" rx="42.07" ry="22.63"/>
<text xml:space="preserve" text-anchor="middle" x="178" y="-417.13" font-family="Arial" font-size="10.00">K_genus</text>
<text xml:space="preserve" text-anchor="middle" x="178" y="-405.13" font-family="Arial" font-size="10.00">(dim=128)</text>
</g>
<!-- pool&#45;&gt;k_genus -->
<g id="edge5" class="edge">
<title>pool&#45;&gt;k_genus</title>
<path fill="none" stroke="#1f618d" d="M310.95,-496C258.84,-496 178,-496 178,-496 178,-496 178,-449.24 178,-449.24"/>
<polygon fill="#1f618d" stroke="#1f618d" points="181.5,-449.24 178,-439.24 174.5,-449.24 181.5,-449.24"/>
<text xml:space="preserve" text-anchor="middle" x="204.59" y="-508.45" font-family="Arial" font-size="9.00">genus</text>
<text xml:space="preserve" text-anchor="middle" x="204.59" y="-497.95" font-family="Arial" font-size="9.00">features</text>
</g>
<!-- k_health -->
<g id="node10" class="node">
<title>k_health</title>
<ellipse fill="#ec7063" stroke="black" cx="538" cy="-414.63" rx="42.07" ry="22.63"/>
<text xml:space="preserve" text-anchor="middle" x="538" y="-417.13" font-family="Arial" font-size="10.00">K_health</text>
<text xml:space="preserve" text-anchor="middle" x="538" y="-405.13" font-family="Arial" font-size="10.00">(dim=128)</text>
</g>
<!-- pool&#45;&gt;k_health -->
<g id="edge6" class="edge">
<title>pool&#45;&gt;k_health</title>
<path fill="none" stroke="#922b21" d="M397.14,-496C451.52,-496 538,-496 538,-496 538,-496 538,-449.24 538,-449.24"/>
<polygon fill="#922b21" stroke="#922b21" points="541.5,-449.24 538,-439.24 534.5,-449.24 541.5,-449.24"/>
<text xml:space="preserve" text-anchor="middle" x="474.45" y="-508.45" font-family="Arial" font-size="9.00">health</text>
<text xml:space="preserve" text-anchor="middle" x="474.45" y="-497.95" font-family="Arial" font-size="9.00">features</text>
</g>
<!-- gate_h -->
<g id="node16" class="node">
<title>gate_h</title>
<polygon fill="#d7bde2" stroke="#6c3483" points="565,-236 497.25,-204 565,-172 632.75,-204 565,-236"/>
<text xml:space="preserve" text-anchor="middle" x="565" y="-206.5" font-family="Arial" font-size="10.00">Gating</text>
<text xml:space="preserve" text-anchor="middle" x="565" y="-194.5" font-family="Arial" font-size="10.00">σ(Conv1×1)</text>
</g>
<!-- pass_r&#45;&gt;gate_h -->
<g id="edge16" class="edge">
<title>pass_r&#45;&gt;gate_h</title>
<path fill="none" stroke="#6c3483" stroke-dasharray="5,2" d="M441.7,-505C453.03,-505 598,-505 598,-505 598,-505 598,-232.13 598,-232.13"/>
<polygon fill="#6c3483" stroke="#6c3483" points="601.5,-232.13 598,-222.13 594.5,-232.13 601.5,-232.13"/>
<text xml:space="preserve" text-anchor="middle" x="582.62" y="-448.66" font-family="Arial" font-size="9.00">original</text>
</g>
<!-- q_genus -->
<g id="node6" class="node">
<title>q_genus</title>
<ellipse fill="#85c1e9" stroke="black" cx="58" cy="-414.63" rx="42.07" ry="22.63"/>
<text xml:space="preserve" text-anchor="middle" x="58" y="-417.13" font-family="Arial" font-size="10.00">Q_genus</text>
<text xml:space="preserve" text-anchor="middle" x="58" y="-405.13" font-family="Arial" font-size="10.00">(dim=128)</text>
</g>
<!-- attn -->
<g id="node12" class="node">
<title>attn</title>
<path fill="#f9e79f" stroke="#9a7d0a" stroke-width="2" d="M400.62,-342C400.62,-342 265.38,-342 265.38,-342 259.38,-342 253.38,-336 253.38,-330 253.38,-330 253.38,-298 253.38,-298 253.38,-292 259.38,-286 265.38,-286 265.38,-286 400.62,-286 400.62,-286 406.62,-286 412.62,-292 412.62,-298 412.62,-298 412.62,-330 412.62,-330 412.62,-336 406.62,-342 400.62,-342"/>
<text xml:space="preserve" text-anchor="middle" x="333" y="-328.5" font-family="Arial" font-size="10.00">Scaled Dot&#45;Product</text>
<text xml:space="preserve" text-anchor="middle" x="333" y="-316.5" font-family="Arial" font-size="10.00">Attention</text>
<text xml:space="preserve" text-anchor="middle" x="333" y="-292.5" font-family="Arial" font-size="10.00">Attn(Q,K,V) = softmax(QKᵀ/√d)V</text>
</g>
<!-- q_genus&#45;&gt;attn -->
<g id="edge7" class="edge">
<title>q_genus&#45;&gt;attn</title>
<path fill="none" stroke="#1f618d" d="M94.16,-402.48C94.16,-373.93 94.16,-305 94.16,-305 94.16,-305 240.96,-305 240.96,-305"/>
<polygon fill="#1f618d" stroke="#1f618d" points="240.96,-308.5 250.96,-305 240.96,-301.5 240.96,-308.5"/>
<text xml:space="preserve" text-anchor="middle" x="106.07" y="-317.45" font-family="Arial" font-size="9.00">query</text>
<text xml:space="preserve" text-anchor="middle" x="106.07" y="-306.95" font-family="Arial" font-size="9.00">genus</text>
</g>
<!-- k_genus&#45;&gt;attn -->
<g id="edge11" class="edge">
<title>k_genus&#45;&gt;attn</title>
<path fill="none" stroke="#1f618d" d="M178,-391.51C178,-364.36 178,-323 178,-323 178,-323 241.26,-323 241.26,-323"/>
<polygon fill="#1f618d" stroke="#1f618d" points="241.26,-326.5 251.26,-323 241.26,-319.5 241.26,-326.5"/>
<text xml:space="preserve" text-anchor="middle" x="165.25" y="-338.07" font-family="Arial" font-size="9.00">key</text>
<text xml:space="preserve" text-anchor="middle" x="165.25" y="-327.57" font-family="Arial" font-size="9.00">genus</text>
</g>
<!-- v_genus -->
<g id="node8" class="node">
<title>v_genus</title>
<ellipse fill="#85c1e9" stroke="black" cx="298" cy="-414.63" rx="42.07" ry="22.63"/>
<text xml:space="preserve" text-anchor="middle" x="298" y="-417.13" font-family="Arial" font-size="10.00">V_genus</text>
<text xml:space="preserve" text-anchor="middle" x="298" y="-405.13" font-family="Arial" font-size="10.00">(dim=128)</text>
</g>
<!-- v_genus&#45;&gt;attn -->
<g id="edge12" class="edge">
<title>v_genus&#45;&gt;attn</title>
<path fill="none" stroke="#1f618d" d="M298,-391.54C298,-391.54 298,-354.25 298,-354.25"/>
<polygon fill="#1f618d" stroke="#1f618d" points="301.5,-354.25 298,-344.25 294.5,-354.25 301.5,-354.25"/>
<text xml:space="preserve" text-anchor="middle" x="285.25" y="-364.35" font-family="Arial" font-size="9.00">value</text>
<text xml:space="preserve" text-anchor="middle" x="285.25" y="-353.85" font-family="Arial" font-size="9.00">genus</text>
</g>
<!-- q_health -->
<g id="node9" class="node">
<title>q_health</title>
<ellipse fill="#ec7063" stroke="black" cx="418" cy="-414.63" rx="42.07" ry="22.63"/>
<text xml:space="preserve" text-anchor="middle" x="418" y="-417.13" font-family="Arial" font-size="10.00">Q_health</text>
<text xml:space="preserve" text-anchor="middle" x="418" y="-405.13" font-family="Arial" font-size="10.00">(dim=128)</text>
</g>
<!-- q_health&#45;&gt;attn -->
<g id="edge10" class="edge">
<title>q_health&#45;&gt;attn</title>
<path fill="none" stroke="#922b21" d="M394.28,-395.7C394.28,-395.7 394.28,-354.26 394.28,-354.26"/>
<polygon fill="#922b21" stroke="#922b21" points="397.78,-354.26 394.28,-344.26 390.78,-354.26 397.78,-354.26"/>
<text xml:space="preserve" text-anchor="middle" x="381.53" y="-366.43" font-family="Arial" font-size="9.00">query</text>
<text xml:space="preserve" text-anchor="middle" x="381.53" y="-355.93" font-family="Arial" font-size="9.00">health</text>
</g>
<!-- k_health&#45;&gt;attn -->
<g id="edge8" class="edge">
<title>k_health&#45;&gt;attn</title>
<path fill="none" stroke="#922b21" d="M538.66,-391.51C538.66,-364.36 538.66,-323 538.66,-323 538.66,-323 424.91,-323 424.91,-323"/>
<polygon fill="#922b21" stroke="#922b21" points="424.91,-319.5 414.91,-323 424.91,-326.5 424.91,-319.5"/>
<text xml:space="preserve" text-anchor="middle" x="503.29" y="-335.45" font-family="Arial" font-size="9.00">key</text>
<text xml:space="preserve" text-anchor="middle" x="503.29" y="-324.95" font-family="Arial" font-size="9.00">health</text>
</g>
<!-- v_health -->
<g id="node11" class="node">
<title>v_health</title>
<ellipse fill="#ec7063" stroke="black" cx="658" cy="-414.63" rx="42.07" ry="22.63"/>
<text xml:space="preserve" text-anchor="middle" x="658" y="-417.13" font-family="Arial" font-size="10.00">V_health</text>
<text xml:space="preserve" text-anchor="middle" x="658" y="-405.13" font-family="Arial" font-size="10.00">(dim=128)</text>
</g>
<!-- v_health&#45;&gt;attn -->
<g id="edge9" class="edge">
<title>v_health&#45;&gt;attn</title>
<path fill="none" stroke="#922b21" d="M624.34,-400.74C624.34,-371.24 624.34,-305 624.34,-305 624.34,-305 424.89,-305 424.89,-305"/>
<polygon fill="#922b21" stroke="#922b21" points="424.89,-301.5 414.89,-305 424.89,-308.5 424.89,-301.5"/>
<text xml:space="preserve" text-anchor="middle" x="559.74" y="-317.45" font-family="Arial" font-size="9.00">value</text>
<text xml:space="preserve" text-anchor="middle" x="559.74" y="-306.95" font-family="Arial" font-size="9.00">health</text>
</g>
<!-- proj_g -->
<g id="node14" class="node">
<title>proj_g</title>
<path fill="#a9dfbf" stroke="#1e8449" d="M330.38,-222C330.38,-222 271.62,-222 271.62,-222 265.62,-222 259.62,-216 259.62,-210 259.62,-210 259.62,-198 259.62,-198 259.62,-192 265.62,-186 271.62,-186 271.62,-186 330.38,-186 330.38,-186 336.38,-186 342.38,-192 342.38,-198 342.38,-198 342.38,-210 342.38,-210 342.38,-216 336.38,-222 330.38,-222"/>
<text xml:space="preserve" text-anchor="middle" x="301" y="-206.5" font-family="Arial" font-size="10.00">MLP Projection</text>
<text xml:space="preserve" text-anchor="middle" x="301" y="-194.5" font-family="Arial" font-size="10.00">(dim=128→C)</text>
</g>
<!-- attn&#45;&gt;proj_g -->
<g id="edge13" class="edge">
<title>attn&#45;&gt;proj_g</title>
<path fill="none" stroke="black" d="M301,-285.1C301,-285.1 301,-233.88 301,-233.88"/>
<polygon fill="black" stroke="black" points="304.5,-233.88 301,-223.88 297.5,-233.88 304.5,-233.88"/>
<text xml:space="preserve" text-anchor="middle" x="283" y="-250.94" font-family="Arial" font-size="9.00">attended</text>
<text xml:space="preserve" text-anchor="middle" x="283" y="-240.44" font-family="Arial" font-size="9.00">features</text>
</g>
<!-- proj_h -->
<g id="node15" class="node">
<title>proj_h</title>
<path fill="#a9dfbf" stroke="#1e8449" d="M449.38,-222C449.38,-222 390.62,-222 390.62,-222 384.62,-222 378.62,-216 378.62,-210 378.62,-210 378.62,-198 378.62,-198 378.62,-192 384.62,-186 390.62,-186 390.62,-186 449.38,-186 449.38,-186 455.38,-186 461.38,-192 461.38,-198 461.38,-198 461.38,-210 461.38,-210 461.38,-216 455.38,-222 449.38,-222"/>
<text xml:space="preserve" text-anchor="middle" x="420" y="-206.5" font-family="Arial" font-size="10.00">MLP Projection</text>
<text xml:space="preserve" text-anchor="middle" x="420" y="-194.5" font-family="Arial" font-size="10.00">(dim=128→C)</text>
</g>
<!-- attn&#45;&gt;proj_h -->
<g id="edge14" class="edge">
<title>attn&#45;&gt;proj_h</title>
<path fill="none" stroke="black" d="M395.62,-285.1C395.62,-285.1 395.62,-233.88 395.62,-233.88"/>
<polygon fill="black" stroke="black" points="399.13,-233.88 395.63,-223.88 392.13,-233.88 399.13,-233.88"/>
<text xml:space="preserve" text-anchor="middle" x="377.62" y="-250.94" font-family="Arial" font-size="9.00">attended</text>
<text xml:space="preserve" text-anchor="middle" x="377.62" y="-240.44" font-family="Arial" font-size="9.00">features</text>
</g>
<!-- fuse_g -->
<g id="node17" class="node">
<title>fuse_g</title>
<path fill="#85c1e9" stroke="#154360" stroke-width="2" d="M311.12,-122C311.12,-122 184.88,-122 184.88,-122 178.88,-122 172.88,-116 172.88,-110 172.88,-110 172.88,-98 172.88,-98 172.88,-92 178.88,-86 184.88,-86 184.88,-86 311.12,-86 311.12,-86 317.12,-86 323.12,-92 323.12,-98 323.12,-98 323.12,-110 323.12,-110 323.12,-116 317.12,-122 311.12,-122"/>
<text xml:space="preserve" text-anchor="middle" x="248" y="-106.5" font-family="Arial" font-size="10.00">Fusion</text>
<text xml:space="preserve" text-anchor="middle" x="248" y="-94.5" font-family="Arial" font-size="10.00">gate·F_orig + (1&#45;gate)·F_enrich</text>
</g>
<!-- gate_g&#45;&gt;fuse_g -->
<g id="edge18" class="edge">
<title>gate_g&#45;&gt;fuse_g</title>
<path fill="none" stroke="black" d="M198.31,-191.74C198.31,-191.74 198.31,-134.37 198.31,-134.37"/>
<polygon fill="black" stroke="black" points="201.81,-134.37 198.31,-124.37 194.81,-134.37 201.81,-134.37"/>
<text xml:space="preserve" text-anchor="middle" x="195.69" y="-154.5" font-family="Arial" font-size="9.00">α</text>
</g>
<!-- proj_g&#45;&gt;fuse_g -->
<g id="edge17" class="edge">
<title>proj_g&#45;&gt;fuse_g</title>
<path fill="none" stroke="black" d="M291.38,-185.66C291.38,-185.66 291.38,-134.42 291.38,-134.42"/>
<polygon fill="black" stroke="black" points="294.88,-134.42 291.38,-124.42 287.88,-134.42 294.88,-134.42"/>
<text xml:space="preserve" text-anchor="middle" x="273.38" y="-161.99" font-family="Arial" font-size="9.00">enriched</text>
</g>
<!-- fuse_h -->
<g id="node18" class="node">
<title>fuse_h</title>
<path fill="#ec7063" stroke="#78281f" stroke-width="2" d="M536.12,-122C536.12,-122 409.88,-122 409.88,-122 403.88,-122 397.88,-116 397.88,-110 397.88,-110 397.88,-98 397.88,-98 397.88,-92 403.88,-86 409.88,-86 409.88,-86 536.12,-86 536.12,-86 542.12,-86 548.12,-92 548.12,-98 548.12,-98 548.12,-110 548.12,-110 548.12,-116 542.12,-122 536.12,-122"/>
<text xml:space="preserve" text-anchor="middle" x="473" y="-106.5" font-family="Arial" font-size="10.00">Fusion</text>
<text xml:space="preserve" text-anchor="middle" x="473" y="-94.5" font-family="Arial" font-size="10.00">gate·F_orig + (1&#45;gate)·F_enrich</text>
</g>
<!-- proj_h&#45;&gt;fuse_h -->
<g id="edge19" class="edge">
<title>proj_h&#45;&gt;fuse_h</title>
<path fill="none" stroke="black" d="M429.62,-185.66C429.62,-185.66 429.62,-134.42 429.62,-134.42"/>
<polygon fill="black" stroke="black" points="433.13,-134.42 429.63,-124.42 426.13,-134.42 433.13,-134.42"/>
<text xml:space="preserve" text-anchor="middle" x="411.63" y="-161.99" font-family="Arial" font-size="9.00">enriched</text>
</g>
<!-- gate_h&#45;&gt;fuse_h -->
<g id="edge20" class="edge">
<title>gate_h&#45;&gt;fuse_h</title>
<path fill="none" stroke="black" d="M522.69,-191.74C522.69,-191.74 522.69,-134.37 522.69,-134.37"/>
<polygon fill="black" stroke="black" points="526.19,-134.37 522.69,-124.37 519.19,-134.37 526.19,-134.37"/>
<text xml:space="preserve" text-anchor="middle" x="520.06" y="-154.5" font-family="Arial" font-size="9.00">α</text>
</g>
<!-- out_g -->
<g id="node19" class="node">
<title>out_g</title>
<path fill="#3498db" stroke="#154360" stroke-width="2" d="M278.88,-36C278.88,-36 217.12,-36 217.12,-36 211.12,-36 205.12,-30 205.12,-24 205.12,-24 205.12,-12 205.12,-12 205.12,-6 211.12,0 217.12,0 217.12,0 278.88,0 278.88,0 284.88,0 290.88,-6 290.88,-12 290.88,-12 290.88,-24 290.88,-24 290.88,-30 284.88,-36 278.88,-36"/>
<text xml:space="preserve" text-anchor="middle" x="248" y="-14.5" font-family="Arial" font-size="10.00" fill="white">Enriched Genus</text>
</g>
<!-- fuse_g&#45;&gt;out_g -->
<g id="edge21" class="edge">
<title>fuse_g&#45;&gt;out_g</title>
<path fill="none" stroke="black" d="M248,-85.34C248,-85.34 248,-48.43 248,-48.43"/>
<polygon fill="black" stroke="black" points="251.5,-48.43 248,-38.43 244.5,-48.43 251.5,-48.43"/>
</g>
<!-- out_h -->
<g id="node20" class="node">
<title>out_h</title>
<path fill="#cb4335" stroke="#641e16" stroke-width="2" d="M503.88,-36C503.88,-36 442.12,-36 442.12,-36 436.12,-36 430.12,-30 430.12,-24 430.12,-24 430.12,-12 430.12,-12 430.12,-6 436.12,0 442.12,0 442.12,0 503.88,0 503.88,0 509.88,0 515.88,-6 515.88,-12 515.88,-12 515.88,-24 515.88,-24 515.88,-30 509.88,-36 503.88,-36"/>
<text xml:space="preserve" text-anchor="middle" x="473" y="-14.5" font-family="Arial" font-size="10.00" fill="white">Enriched Health</text>
</g>
<!-- fuse_h&#45;&gt;out_h -->
<g id="edge22" class="edge">
<title>fuse_h&#45;&gt;out_h</title>
<path fill="none" stroke="black" d="M473,-85.34C473,-85.34 473,-48.43 473,-48.43"/>
<polygon fill="black" stroke="black" points="476.5,-48.43 473,-38.43 469.5,-48.43 476.5,-48.43"/>
</g>
</g>
</svg>
